<svg xmlns="http://www.w3.org/2000/svg" width="48" height="48" viewBox="0 0 48 48">
  <g fill="#FFFFFF" fill-rule="evenodd">
    <path
      d="M45.2595742 12.8839476C48.8860465 19.8373364 49.023172 28.4105837 44.9374491 35.7086669L43.4557419 34.8250455C47.2155781 28.0758061 47.0907632 20.1584356 43.753246 13.72585L45.2595742 12.8839476M4.54425811 13.1749545C.784079921 19.9245359.909236816 27.8415644 4.24641205 34.27415L2.74008385 35.1160524C-.88638847 28.1626636-1.02351392 19.5897583 3.06255093 12.2913331L4.54425811 13.1749545M10.0391929 23.137922C10.1705051 20.9805044 10.8044966 18.821719 11.9876738 16.8376744 13.170509 14.8536299 14.7677982 13.2689931 16.6034327 12.1278768L17.4060098 13.5641035C15.81385 14.5677524 14.4282332 15.9520013 13.3985955 17.6792349 12.3689577 19.4061264 11.8105391 21.2831379 11.6843564 23.1611752L10.0391929 23.137922M31.7262155 12.3426269C35.61668 14.9168922 37.8264173 19.1452119 37.977905 23.5308326L36.3330835 23.5079214C36.1768084 19.6899522 34.2532905 16.0156056 30.8839712 13.7552584L31.7262155 12.3426269"/>
    <path
      d="M9.4370036 14.7879738C12.6161939 9.75707697 18.0023858 6.91505798 23.5763131 6.77246119L23.5540858 8.36393711C18.5358415 8.51200524 13.692338 11.0705405 10.8144134 15.5861055L9.4370036 14.7879738M38.5626544 33.2123682C35.3831222 38.243265 29.9972722 41.085284 24.4236869 41.2278808L24.4462561 39.6364048C29.4641585 39.4879948 34.30732 36.9298015 37.1855866 32.4142365L38.5626544 33.2123682M39.3573665 16.1821395C41.8218631 21.0352178 41.938813 26.9545234 39.2311838 32.0606512L37.853774 31.2618356C40.2714222 26.6587291 40.1691765 21.3361415 37.9679882 16.9583858L39.3573665 16.1821395M32.8252709 9.19900033C35.3171241 10.684811 37.2970652 12.7016836 38.7086708 15.0187959L37.3186086 15.7953842C36.039341 13.7142234 34.2532905 11.902868 32.0107252 10.5651255 29.767134 9.22772486 27.3245228 8.51781854 24.8856731 8.38171896L24.9079004 6.78990108C27.6175814 6.93010416 30.3334176 7.71318965 32.8252709 9.19900033M12.8343636 41.4255329C6.81554799 37.5733678 3.43391811 31.0788877 3.30534163 24.3751287L5.04933115 24.3997498C5.18474681 30.5013194 8.26237537 36.4066047 13.7279017 39.9270698L12.8343636 41.4255329"/>
    <path
      d="M37.7098094,39.5095382 C31.3028706,45.1744265 21.8018893,46.4434353 13.9785575,42.1077406 L14.8717537,40.6092774 C21.9944121,44.5291503 30.6220308,43.3897439 36.4746544,38.2743832 L37.7098094,39.5095382"/>
    <path
      d="M29.2340203 47.4087848C23.4586793 48.7010468 17.197415 47.8741906 11.7144487 44.6050652 8.16491713 42.4886826 5.36085555 39.5991313 3.38775368 36.279738L4.89442385 35.4381775C6.72458696 38.5014438 9.31834392 41.168038 12.5973862 43.123358 17.6720537 46.1490088 23.4638087 46.9208097 28.8106754 45.7359227L29.2340203 47.4087848M16.2737845 35.657715C12.383662 33.0834497 10.1735827 28.85513 10.022095 24.4695093L11.6665745 24.4927625C11.8231916 28.3103898 13.7463675 31.9850783 17.1160288 34.2450835L16.2737845 35.657715M37.9604651 24.8624199C37.8294949 27.0198375 37.1955034 29.178623 36.0123262 31.1623256 34.829491 33.1463701 33.2318598 34.7310069 31.3962254 35.8724651L30.5936482 34.4362385C32.1858081 33.4319057 33.5714248 32.0479987 34.6014045 30.3211071 35.6310423 28.5942155 36.1894609 26.7172041 36.3156436 24.8395087L37.9604651 24.8624199"/>
    <path
      d="M8.64263348 31.8182024C6.17813691 26.9647822 6.06118703 21.0458185 8.76847429 15.9396908L10.146226 16.7385064C7.72857779 21.3416128 7.83082345 26.6642005 10.0320118 31.0419561L8.64263348 31.8182024M9.37681887 9.34741042C15.7676856 2.96133115 25.8168267 1.34591811 34.0214425 5.89225942L33.1279044 7.39072257C25.624304 3.26122896 16.4495513 4.74601376 10.6095801 10.5805136L9.37681887 9.34741042M44.6768765 24.9568005C44.5274406 28.2553344 43.5856862 31.5654949 41.7763826 34.5993528 40.8831864 36.097474 39.8302954 37.4417137 38.6525896 38.6231811L37.4198284 37.3904199C38.4976823 36.3084625 39.4616639 35.078095 40.2792873 33.7068405 41.9258185 30.9455237 42.7882385 27.9345771 42.932887 24.9325215L44.6768765 24.9568005"/>
    <path
      d="M36.2855513 3.39527678C39.8347409 5.51131739 42.6391444 8.4005267 44.6119044 11.7199201L43.1052342 12.5618225C41.275755 9.49855617 38.6816561 6.831962 35.4026138 4.87664199 30.3279463 1.85099116 24.5358493 1.0791903 19.1889826 2.2640773L18.7659797.591557157C24.5413207-.701046839 30.802585.125809368 36.2855513 3.39527678M31.6417517 28.316887C32.1351982 28.9454071 32.8211674 29.1591313 33.1207232 28.1113698 33.2205752 27.7639397 33.3761664 26.6361598 33.7468497 25.9601074 34.5388261 24.5156738 33.8497792 23.8543256 33.0242909 23.9329761 33.0530154 23.6053796 33.0690875 23.2630789 33.0690875 22.9043642 33.0690875 17.7059076 29.021322 13.4871628 24.0253049 13.4775879L24.0253049 13.477246 24.008207 13.477246 24.008207 13.4775879C19.0132159 13.4871628 14.9647665 17.7059076 14.9647665 22.9043642 14.9647665 23.2630789 14.9815224 23.6053796 15.0109309 23.9329761 14.1851006 23.8543256 13.4960537 24.5156738 14.2883721 25.9601074 14.6583714 26.6361598 14.8143046 27.7639397 14.9134726 28.1113698 15.2137124 29.1591313 15.8993397 28.9454071 16.3927861 28.316887 18.0376076 32.5489682 19.351755 30.7721507 19.2652394 35.8030475 19.0361271 35.7083249 18.8100924 35.6064212 18.5867933 35.4956266L17.7828483 36.9352728C19.7145732 37.8934412 21.8490796 38.3978303 24.008207 38.4029597L24.0253049 38.4029597C26.1851163 38.3978303 28.3189387 37.8934412 30.2513475 36.9352728L29.4474026 35.4956266C29.2241035 35.6064212 28.9980688 35.7083249 28.7689564 35.8030475 28.6831248 30.7721507 29.9972722 32.5489682 31.6417517 28.316887L31.6417517 28.316887zM24.0170979 14.5342404C28.3975893 14.5407376 31.9474628 18.092663 31.9474628 22.4680249 31.9474628 26.8457805 28.3975893 30.3949702 24.0170979 30.4011255 19.6372905 30.3949702 16.086733 26.8457805 16.086733 22.4680249 16.086733 18.092663 19.6372905 14.5407376 24.0170979 14.5342404L24.0170979 14.5342404z"/>
    <path
      d="M25.9457452 27.9366289C27.9007232 28.8937714 29.5534098 27.5440603 29.7982522 25.7032964 30.6463099 25.076828 30.8737124 24.0906191 30.7488975 23.0979129 31.1739522 21.6490337 31.0159672 20.2435834 30.1128542 18.9971438 29.7732892 17.8977465 28.9361743 17.1211582 27.81113 16.8144212 26.369432 15.1419011 24.3966721 15.9068628 24.3970141 18.2239751L24.3970141 24.8548968C24.3966721 26.1023623 24.720507 27.3371752 25.9457452 27.9366289L25.9457452 27.9366289zM27.0519817 17.0243839C26.4556056 17.1857884 26.1861422 17.6870999 26.2627409 18.2684297 26.3154026 18.6681795 26.5205778 19.1024671 26.8379155 19.4745182 27.0249669 19.6933718 27.2048372 19.4410062 27.0974622 19.260794 26.8673239 18.8764324 26.7958546 18.5474681 26.8358637 18.2889473 26.9316122 17.6730796 27.5269623 17.6026361 28.034771 17.7466007 29.1153606 18.0526538 29.6515519 19.194112 29.5366538 20.2223819 29.4053416 21.4028235 28.4652971 21.547472 27.4637 21.7013534 26.5927311 21.8350593 25.6783334 21.9759463 25.143168 22.7590318L25.143168 19.5528267C25.3411621 19.7238061 25.5747199 19.8708483 25.831531 19.9963472 26.3820845 20.2651268 27.9126918 20.8662902 28.4423858 20.2726499 28.5360825 20.1676685 28.5808791 20.030885 28.5634392 19.8602476 28.5477091 19.7097858 28.482395 19.5312833 28.3565542 19.3237144 28.1848909 19.0402306 27.9219247 19.1417923 28.0378487 19.4755441 28.0730704 19.5771058 28.0675991 19.6543885 28.0296417 19.7091019 27.6203171 20.3054779 26.1687023 19.4892224 25.5620675 18.9222548 25.0597301 18.4524035 25.1335932 17.6802607 25.5483891 17.1659548 25.897187 16.733377 26.460735 16.6376286 27.0519817 17.0243839L27.0519817 17.0243839zM29.0442332 25.9997746C28.7272375 27.0830999 27.5933023 27.7160655 26.4515021 27.280752 26.6826662 27.1771386 26.8543295 26.9733311 26.9627304 26.7079712 27.082074 26.4162804 27.1255028 26.0479908 27.0878873 25.6578159 27.0731831 25.5049604 27.0465103 25.3493691 27.0071851 25.1941199 26.9223793 24.8593423 26.676511 24.9349152 26.6980544 25.2553305 26.7332761 25.7877602 26.5715296 26.203924 26.336604 26.4378238 26.245643 26.5284428 26.1444232 26.5899954 26.0411517 26.6187199 25.9419836 26.6460766 25.8400799 26.642999 25.7429636 26.6050416 25.17668 26.3827684 25.1212827 25.3787776 25.1537688 24.8832794 25.2570403 23.3164245 25.9843865 22.5511209 27.6893927 22.3288477 28.8411097 22.1787278 29.9617085 22.0323695 30.032152 20.2935093 30.3286302 21.0362437 30.3412827 21.8501055 30.1555991 22.6219063 30.0718192 22.9707042 29.5910252 22.881453 29.0360262 22.7788654 28.192414 22.6229322 27.198682 22.4393004 26.8806603 23.5349361 26.7832021 23.8717655 27.1333678 24.1196856 27.2780164 23.7001022 27.521491 22.9956672 28.3244101 23.2323027 28.896849 23.3766092 29.3304527 23.4856941 29.758585 23.593753 30.0964402 23.5127088 30.1060151 24.2034654 29.8204795 24.9581684 29.1044179 25.2255801 28.1961756 25.5637773 27.9427841 24.5844075 27.985187 23.8847599 27.9992073 23.643337 27.7379509 23.6142706 27.6863151 23.8491962 27.4876371 24.7557288 27.6528031 26.6176941 29.0442332 25.9997746L29.0442332 25.9997746zM22.0887927 27.9366289C20.1338146 28.8937714 18.4811281 27.5440603 18.2366276 25.7032964 17.3889119 25.076828 17.1611674 24.0906191 17.2856404 23.0979129 16.8609276 21.6490337 17.0189125 20.2435834 17.9220255 18.9971438 18.2612486 17.8977465 19.0987055 17.1211582 20.2237498 16.8144212 21.6654478 15.1419011 23.6378657 15.9068628 23.6375237 18.2239751L23.6375237 24.8548968C23.6378657 26.1023623 23.3143727 27.3371752 22.0887927 27.9366289L22.0887927 27.9366289zM20.9825562 17.0243839C21.5792742 17.1857884 21.8487376 17.6870999 21.7721389 18.2684297 21.7194772 18.6681795 21.51396 19.1024671 21.1969643 19.4745182 21.0099129 19.6933718 20.8297006 19.4410062 20.9374176 19.260794 21.1675558 18.8764324 21.2390252 18.5474681 21.199016 18.2889473 21.1032676 17.6730796 20.5075755 17.6026361 19.9997668 17.7466007 18.9195192 18.0526538 18.3833279 19.194112 18.497884 20.2223819 18.6295382 21.4028235 19.5695827 21.547472 20.5711798 21.7013534 21.4418067 21.8350593 22.3565463 21.9759463 22.8917118 22.7590318L22.8917118 19.5528267C22.6937177 19.7238061 22.4598179 19.8708483 22.2030069 19.9963472 21.6527953 20.2651268 20.1218461 20.8662902 19.5924939 20.2726499 19.4987972 20.1676685 19.4540007 20.030885 19.4714406 19.8602476 19.4868287 19.7097858 19.5524848 19.5312833 19.6779836 19.3237144 19.8499889 19.0402306 20.1129551 19.1417923 19.9970311 19.4755441 19.9618094 19.5771058 19.9672807 19.6543885 20.0048962 19.7091019 20.4145627 20.3054779 21.8661775 19.4892224 22.4728123 18.9222548 22.9751497 18.4524035 22.9009446 17.6802607 22.4861487 17.1659548 22.1376928 16.733377 21.5738028 16.6376286 20.9825562 17.0243839L20.9825562 17.0243839zM18.9906466 25.9997746C19.3073004 27.0830999 20.4415775 27.7160655 21.5833777 27.280752 21.3522136 27.1771386 21.1805503 26.9733311 21.0718074 26.7079712 20.9524638 26.4162804 20.909035 26.0479908 20.9466505 25.6578159 20.9613547 25.5049604 20.9883695 25.3493691 21.0276947 25.1941199 21.1121585 24.8593423 21.3580269 24.9349152 21.3368254 25.2553305 21.3016037 25.7877602 21.4636921 26.203924 21.6982758 26.4378238 21.7888949 26.5284428 21.8904566 26.5899954 21.9937281 26.6187199 22.0928962 26.6460766 22.1947999 26.642999 22.2919161 26.6050416 22.8578578 26.3827684 22.9135971 25.3787776 22.8807691 24.8832794 22.7778395 23.3164245 22.0504933 22.5511209 20.3454871 22.3288477 19.1934281 22.1787278 18.0731713 22.0323695 18.0027278 20.2935093 17.7059076 21.0362437 17.6935971 21.8501055 17.8792807 22.6219063 17.9627186 22.9707042 18.4438546 22.881453 18.9988536 22.7788654 19.8424658 22.6229322 20.8358559 22.4393004 21.1542195 23.5349361 21.2516777 23.8717655 20.90117 24.1196856 20.7568634 23.7001022 20.5133888 22.9956672 19.7104697 23.2323027 19.1376888 23.3766092 18.7044271 23.4856941 18.2762948 23.593753 17.9384396 23.5127088 17.9285228 24.2034654 18.2140583 24.9581684 18.9304618 25.2255801 19.8383623 25.5637773 20.0917537 24.5844075 20.0496928 23.8847599 20.0353305 23.643337 20.2969289 23.6142706 20.3485647 23.8491962 20.5469008 24.7557288 20.3820766 26.6176941 18.9906466 25.9997746L18.9906466 25.9997746z"/>
  </g>
</svg>
