<svg version="1.0" xmlns="http://www.w3.org/2000/svg"
 width="375.000000pt" height="375.000000pt" viewBox="0 0 375.000000 375.000000"
 preserveAspectRatio="xMidYMid meet">
<g transform="translate(0.000000,375.000000) scale(0.100000,-0.100000)"
fill="#ffffff" stroke="none">
<path d="M1727 3719 c-89 -7 -255 -34 -263 -42 -2 -1 4 -33 13 -71 15 -60 19
-67 37 -62 63 18 238 36 354 36 472 0 909 -187 1236 -531 71 -74 179 -213 222
-285 10 -16 14 -15 70 16 32 18 61 34 63 36 1 1 -30 51 -70 109 -80 117 -239
290 -346 377 -231 189 -535 333 -815 387 -96 19 -332 43 -382 40 -12 -1 -65
-5 -119 -10z"/>
<path d="M1639 3455 c-323 -52 -613 -190 -844 -399 l-60 -55 51 -51 51 -51 34
32 c205 192 467 323 750 375 145 26 373 24 519 -5 130 -27 252 -67 354 -117
37 -19 71 -34 75 -34 7 0 71 104 71 117 0 26 -299 139 -459 174 -126 27 -417
35 -542 14z"/>
<path d="M1641 3184 c-345 -58 -668 -268 -879 -571 l-22 -31 50 -31 c28 -17
54 -31 59 -31 5 0 28 26 50 57 54 76 180 203 263 264 87 65 232 139 339 172
92 29 239 57 300 57 l39 0 0 65 0 65 -57 -1 c-32 -1 -96 -7 -142 -15z"/>
<path d="M1930 3136 l0 -63 63 -7 c210 -24 431 -112 598 -238 91 -68 209 -192
259 -272 19 -30 38 -55 43 -56 4 0 25 11 47 25 22 14 44 25 50 25 18 0 11 20
-25 74 -111 168 -318 348 -510 444 -133 66 -378 132 -492 132 l-33 0 0 -64z"/>
<path d="M1720 2855 c-99 -15 -239 -61 -314 -103 -131 -75 -258 -182 -314
-264 -13 -21 -29 -38 -34 -38 -5 0 -7 -4 -4 -9 4 -5 3 -11 -1 -13 -20 -8 -79
-118 -116 -213 -43 -113 -60 -236 -54 -375 7 -135 30 -267 56 -318 5 -9 28
-55 51 -102 23 -47 45 -87 49 -90 4 -3 17 -21 29 -41 28 -46 165 -180 234
-229 116 -82 272 -147 409 -169 140 -23 333 -9 459 34 25 8 54 18 65 22 86 28
278 157 351 234 50 54 132 168 151 210 9 22 20 39 25 39 4 0 8 8 8 18 0 10 4
22 9 27 12 13 38 83 58 160 21 78 24 388 4 455 -7 25 -15 56 -18 70 -2 14 -8
29 -14 34 -5 6 -9 20 -9 32 0 12 -7 27 -15 34 -8 7 -15 19 -15 27 0 30 -105
189 -170 257 -105 111 -211 184 -375 257 -76 34 -268 70 -364 68 -31 -1 -94
-7 -141 -14z m198 -394 c8 -5 15 -35 17 -77 3 -38 9 -91 15 -119 5 -27 12 -81
14 -120 2 -38 7 -81 10 -95 3 -14 8 -56 10 -95 2 -38 9 -104 15 -145 6 -41 13
-105 16 -142 8 -82 26 -90 45 -20 8 26 18 50 24 54 6 4 58 8 116 8 l105 0 94
81 c59 50 101 79 113 77 25 -4 156 -188 150 -210 -7 -27 -40 -21 -60 10 -30
47 -94 132 -99 132 -7 0 -71 -53 -133 -109 l-45 -41 -107 0 c-60 0 -107 -3
-106 -7 1 -5 -3 -26 -7 -48 -5 -22 -10 -42 -10 -45 -27 -125 -51 -210 -60
-214 -21 -8 -35 9 -39 50 -2 21 -8 71 -14 109 -6 39 -14 106 -17 149 -3 44 -8
82 -10 85 -2 3 -6 40 -9 81 -3 41 -11 109 -16 150 -11 84 -18 154 -19 188 -2
44 -29 23 -40 -30 -28 -134 -63 -327 -67 -366 -2 -24 -9 -52 -14 -62 -6 -10
-10 -33 -10 -50 0 -39 -16 -70 -35 -70 -9 0 -28 18 -43 40 l-27 39 -78 1 c-85
0 -100 6 -164 57 l-41 34 -64 -43 c-117 -80 -204 -128 -231 -128 -15 0 -27 2
-27 4 0 2 -3 11 -6 19 -4 11 10 23 48 41 63 30 87 45 192 114 44 29 85 52 92
52 7 0 37 -20 67 -45 l56 -45 93 0 c58 0 98 -4 106 -12 13 -13 14 -11 33 62 6
25 13 61 14 80 2 19 8 58 14 85 20 90 31 149 36 190 3 22 7 47 10 55 6 19 35
183 41 235 7 56 24 74 52 56z"/>
<path d="M211 2693 c-196 -397 -243 -845 -135 -1278 27 -110 81 -258 126 -348
l29 -58 59 33 c33 18 60 36 60 41 0 4 -9 26 -21 49 -38 73 -88 215 -115 319
-99 393 -59 794 117 1166 22 46 39 86 39 90 0 6 -70 51 -111 71 -3 1 -24 -37
-48 -85z"/>
<path d="M3440 2699 c-30 -18 -56 -33 -58 -34 -1 -1 13 -33 32 -72 117 -236
176 -558 154 -847 -16 -220 -66 -412 -158 -605 -28 -57 -49 -105 -48 -106 15
-13 108 -65 115 -65 13 0 103 193 141 301 79 224 114 503 94 738 -14 163 -38
289 -81 421 -38 117 -113 292 -126 297 -5 1 -35 -11 -65 -28z"/>
<path d="M652 2408 c-89 -206 -107 -297 -107 -543 1 -173 3 -200 28 -299 27
-107 87 -270 107 -290 12 -12 122 44 116 59 -98 219 -133 390 -123 590 9 167
47 324 109 449 16 32 28 59 26 60 -2 2 -28 17 -59 34 l-57 32 -40 -92z"/>
<path d="M2997 2451 c-26 -15 -50 -30 -53 -33 -3 -3 6 -33 21 -67 57 -136 82
-235 94 -374 17 -202 -17 -414 -95 -586 -19 -41 -34 -77 -34 -80 0 -3 25 -19
56 -35 64 -34 58 -38 103 70 65 153 110 367 111 519 0 130 -31 312 -77 445
-22 66 -69 171 -76 169 -1 0 -23 -13 -50 -28z"/>
<path d="M270 1826 c0 -71 24 -235 49 -337 88 -356 298 -675 586 -891 50 -38
95 -68 100 -68 9 0 75 100 75 113 0 3 -37 32 -82 65 -101 73 -224 198 -307
312 -71 97 -168 287 -206 405 -33 103 -65 281 -65 362 l0 63 -75 0 c-72 0 -75
-1 -75 -24z"/>
<path d="M3315 1743 c-33 -314 -159 -606 -363 -841 l-55 -64 50 -50 50 -50 57
64 c167 187 299 432 362 676 20 76 44 229 44 280 l0 42 -69 0 -70 0 -6 -57z"/>
<path d="M2817 1141 c-108 -144 -245 -258 -412 -340 -147 -73 -272 -108 -447
-126 l-56 -6 -4 -66 -3 -66 81 7 c317 24 621 170 847 405 116 122 178 209 157
221 -8 5 -33 21 -56 34 l-41 25 -66 -88z"/>
<path d="M333 962 c-29 -15 -52 -32 -52 -38 -1 -6 22 -44 50 -85 297 -432 729
-709 1249 -801 116 -20 481 -17 600 5 52 10 96 19 97 20 3 3 -32 125 -38 131
-2 3 -45 -2 -94 -10 -476 -79 -963 50 -1350 356 -118 94 -284 279 -361 402
-16 27 -33 48 -39 47 -5 0 -33 -12 -62 -27z"/>
<path d="M2725 699 c-144 -111 -363 -210 -565 -254 -117 -26 -393 -31 -516
-11 -158 27 -286 68 -415 132 l-66 33 -27 -49 c-15 -27 -31 -52 -36 -55 -21
-13 -7 -25 78 -65 111 -54 290 -112 412 -136 144 -27 418 -26 568 4 263 53
487 154 695 315 l78 60 -48 49 c-26 26 -52 48 -58 47 -5 -1 -50 -32 -100 -70z"/>
</g>
</svg>
