<svg xmlns="http://www.w3.org/2000/svg" width="48" height="48" viewBox="0 0 48 48">
  <g fill="#FFFFFF" transform="translate(2 14)">
    <path d="M9,15 C9,7.85228475 14.8522847,2 22,2 C29.1477153,2 35,7.85228475 35,15 C35,15.5522847 35.4477153,16 36,16 C36.5522847,16 37,15.5522847 37,15 C37,6.74771525 30.2522847,0 22,0 C13.7477153,0 7,6.74771525 7,15 C7,15.5522847 7.44771525,16 8,16 C8.55228475,16 9,15.5522847 9,15 Z"/>
    <path d="M1,17 L43,17 C43.5522847,17 44,16.5522847 44,16 C44,15.4477153 43.5522847,15 43,15 L1,15 C0.44771525,15 0,15.4477153 0,16 C0,16.5522847 0.44771525,17 1,17 Z"/>
  </g>
</svg>
