<svg xmlns="http://www.w3.org/2000/svg" width="48" height="48" viewBox="0 0 48 48">
  <g fill="#FFFFFF" transform="translate(2 2)">
    <path d="M22 34.5C15.0964406 34.5 9.5 28.9035594 9.5 22 9.5 15.0964406 15.0964406 9.5 22 9.5 28.9035594 9.5 34.5 15.0964406 34.5 22 34.5 28.9035594 28.9035594 34.5 22 34.5zM22 32.5C27.7989899 32.5 32.5 27.7989899 32.5 22 32.5 16.2010101 27.7989899 11.5 22 11.5 16.2010101 11.5 11.5 16.2010101 11.5 22 11.5 27.7989899 16.2010101 32.5 22 32.5zM39 23L42 23C42.5522847 23 43 22.5522847 43 22 43 21.4477153 42.5522847 21 42 21L39 21C38.4477153 21 38 21.4477153 38 22 38 22.5522847 38.4477153 23 39 23z"/>
    <path d="M39 23L43 23C43.5522847 23 44 22.5522847 44 22 44 21.4477153 43.5522847 21 43 21L39 21C38.4477153 21 38 21.4477153 38 22 38 22.5522847 38.4477153 23 39 23zM1 23L4 23C4.55228475 23 5 22.5522847 5 22 5 21.4477153 4.55228475 21 4 21L1 21C.44771525 21 0 21.4477153 0 22 0 22.5522847.44771525 23 1 23z"/>
    <path d="M1 23L5 23C5.55228475 23 6 22.5522847 6 22 6 21.4477153 5.55228475 21 5 21L1 21C.44771525 21 0 21.4477153 0 22 0 22.5522847.44771525 23 1 23zM21 39L21 42C21 42.5522847 21.4477153 43 22 43 22.5522847 43 23 42.5522847 23 42L23 39C23 38.4477153 22.5522847 38 22 38 21.4477153 38 21 38.4477153 21 39z"/>
    <path d="M21 39L21 43C21 43.5522847 21.4477153 44 22 44 22.5522847 44 23 43.5522847 23 43L23 39C23 38.4477153 22.5522847 38 22 38 21.4477153 38 21 38.4477153 21 39zM21 1L21 4C21 4.55228475 21.4477153 5 22 5 22.5522847 5 23 4.55228475 23 4L23 1C23 .44771525 22.5522847 0 22 0 21.4477153 0 21 .44771525 21 1z"/>
    <path d="M21 1L21 5C21 5.55228475 21.4477153 6 22 6 22.5522847 6 23 5.55228475 23 5L23 1C23 .44771525 22.5522847 0 22 0 21.4477153 0 21 .44771525 21 1zM33.0928932 34.5071068L35.6928932 37.1071068C36.0834175 37.4976311 36.7165825 37.4976311 37.1071068 37.1071068 37.4976311 36.7165825 37.4976311 36.0834175 37.1071068 35.6928932L34.5071068 33.0928932C34.1165825 32.7023689 33.4834175 32.7023689 33.0928932 33.0928932 32.7023689 33.4834175 32.7023689 34.1165825 33.0928932 34.5071068z"/>
    <path d="M33.0928932 34.5071068L36.2928932 37.7071068C36.6834175 38.0976311 37.3165825 38.0976311 37.7071068 37.7071068 38.0976311 37.3165825 38.0976311 36.6834175 37.7071068 36.2928932L34.5071068 33.0928932C34.1165825 32.7023689 33.4834175 32.7023689 33.0928932 33.0928932 32.7023689 33.4834175 32.7023689 34.1165825 33.0928932 34.5071068zM6.29289322 7.70710678L8.89289322 10.3071068C9.28341751 10.6976311 9.91658249 10.6976311 10.3071068 10.3071068 10.6976311 9.91658249 10.6976311 9.28341751 10.3071068 8.89289322L7.70710678 6.29289322C7.31658249 5.90236893 6.68341751 5.90236893 6.29289322 6.29289322 5.90236893 6.68341751 5.90236893 7.31658249 6.29289322 7.70710678z"/>
    <path d="M6.29289322 7.70710678L9.49289322 10.9071068C9.88341751 11.2976311 10.5165825 11.2976311 10.9071068 10.9071068 11.2976311 10.5165825 11.2976311 9.88341751 10.9071068 9.49289322L7.70710678 6.29289322C7.31658249 5.90236893 6.68341751 5.90236893 6.29289322 6.29289322 5.90236893 6.68341751 5.90236893 7.31658249 6.29289322 7.70710678zM9.49289322 33.0928932L6.89289322 35.6928932C6.50236893 36.0834175 6.50236893 36.7165825 6.89289322 37.1071068 7.28341751 37.4976311 7.91658249 37.4976311 8.30710678 37.1071068L10.9071068 34.5071068C11.2976311 34.1165825 11.2976311 33.4834175 10.9071068 33.0928932 10.5165825 32.7023689 9.88341751 32.7023689 9.49289322 33.0928932z"/>
    <path d="M9.49289322 33.0928932L6.29289322 36.2928932C5.90236893 36.6834175 5.90236893 37.3165825 6.29289322 37.7071068 6.68341751 38.0976311 7.31658249 38.0976311 7.70710678 37.7071068L10.9071068 34.5071068C11.2976311 34.1165825 11.2976311 33.4834175 10.9071068 33.0928932 10.5165825 32.7023689 9.88341751 32.7023689 9.49289322 33.0928932zM36.2928932 6.29289322L33.6928932 8.89289322C33.3023689 9.28341751 33.3023689 9.91658249 33.6928932 10.3071068 34.0834175 10.6976311 34.7165825 10.6976311 35.1071068 10.3071068L37.7071068 7.70710678C38.0976311 7.31658249 38.0976311 6.68341751 37.7071068 6.29289322 37.3165825 5.90236893 36.6834175 5.90236893 36.2928932 6.29289322z"/>
    <path d="M36.2928932,6.29289322 L33.0928932,9.49289322 C32.7023689,9.88341751 32.7023689,10.5165825 33.0928932,10.9071068 C33.4834175,11.2976311 34.1165825,11.2976311 34.5071068,10.9071068 L37.7071068,7.70710678 C38.0976311,7.31658249 38.0976311,6.68341751 37.7071068,6.29289322 C37.3165825,5.90236893 36.6834175,5.90236893 36.2928932,6.29289322 Z"/>
  </g>
</svg>
