<?xml version="1.0" encoding="UTF-8"?>
<svg width="381px" height="221px" viewBox="0 0 381 221" version="1.1"
     xmlns="http://www.w3.org/2000/svg">
    <!-- Generator: Sketch 43.2 (39069) - http://www.bohemiancoding.com/sketch -->
    <title>time-sunrise</title>
    <desc>Created with Sketch.</desc>
    <defs></defs>
    <g id="Page-1" stroke="none" stroke-width="1" fill="none" fill-rule="evenodd">
        <g id="Time-Morning-Neg" transform="translate(-10.000000, -90.000000)">
            <g id="time-sunrise" transform="translate(10.000000, 11.000000)">
                <path d="M336.818182,262.636364 L371.363636,262.636364 C376.133368,262.636364 380,258.769731 380,254 C380,249.230268 376.133368,245.363636 371.363636,245.363636 L336.818182,245.363636 C332.04845,245.363636 328.181818,249.230268 328.181818,254 C328.181818,258.769731 332.04845,262.636364 336.818182,262.636364 Z" id="Path" fill="#FFFFFF"></path>
                <path d="M9.63636364,299.642941 L372.363636,299.642941 C377.133368,299.642941 381,296.220158 381,291.997941 C381,287.775725 377.133368,284.352941 372.363636,284.352941 L9.63636364,284.352941 C4.8666317,284.352941 1,287.775725 1,291.997941 C1,296.220158 4.8666317,299.642941 9.63636364,299.642941 Z" id="Shape" fill="#FFFFFF" fill-rule="nonzero"></path>
                <path d="M8.63636364,257.636364 L43.1818182,257.636364 C47.9515501,257.636364 51.8181818,253.769731 51.8181818,249 C51.8181818,244.230268 47.9515501,240.363636 43.1818182,240.363636 L8.63636364,240.363636 C3.8666317,240.363636 0,244.230268 0,249 C0,253.769731 3.8666317,257.636364 8.63636364,257.636364 Z" id="Path" fill="#FFFFFF"></path>
                <path d="M54.3477142,145.561377 L81.9840778,173.197741 C85.3567876,176.57045 90.8250307,176.57045 94.1977405,173.197741 C97.5704504,169.825031 97.5704504,164.356788 94.1977405,160.984078 L66.5613767,133.347714 C63.188667,129.975004 57.7204239,129.975004 54.3477142,133.347714 C50.9750044,136.720424 50.9750044,142.188667 54.3477142,145.561377 Z" id="Path" fill="#FFFFFF"></path>
                <path d="M313.438623,133.347714 L285.802259,160.984078 C282.42955,164.356788 282.42955,169.825031 285.802259,173.197741 C289.174969,176.57045 294.643213,176.57045 298.015922,173.197741 L325.652286,145.561377 C329.024996,142.188667 329.024996,136.720424 325.652286,133.347714 C322.279576,129.975004 316.811333,129.975004 313.438623,133.347714 Z" id="Shape" fill="#FFFFFF" fill-rule="nonzero"></path>
                <path d="M181.363636,87.6363636 L181.363636,113.545455 C181.363636,118.315186 185.230269,122.181818 190,122.181818 C194.769732,122.181818 198.636364,118.315186 198.636364,113.545455 L198.636364,87.6363636 C198.636364,82.8666317 194.769732,79 190,79 C185.230269,79 181.363636,82.8666317 181.363636,87.6363636 Z" id="Shape" fill="#FFFFFF" fill-rule="nonzero"></path>
                <path d="M88.1003804,291 C86.7230354,284.214691 86,277.191783 86,270 C86,212.010101 133.010101,165 191,165 C248.989899,165 296,212.010101 296,270 C296,277.191783 295.276965,284.214691 293.89962,291 L88.1003804,291 Z" id="Combined-Shape" stroke="#FFFFFF" stroke-width="15.29"></path>
                <rect id="Rectangle-2" x="0" y="0" width="380" height="380"></rect>
            </g>
        </g>
    </g>
</svg>
