<?xml version="1.0" encoding="UTF-8"?>
<svg width="381px" height="221px" viewBox="0 0 381 221" version="1.1" xmlns="http://www.w3.org/2000/svg" xmlns:xlink="http://www.w3.org/1999/xlink">
    <!-- Generator: Sketch 43.2 (39069) - http://www.bohemiancoding.com/sketch -->
    <title>time-sunrise</title>
    <desc>Created with Sketch.</desc>
    <defs></defs>
    <g id="Page-1" stroke="none" stroke-width="1" fill="none" fill-rule="evenodd">
        <g id="Time-Morning-Neg" transform="translate(-10.000000, -90.000000)">
            <g id="time-sunrise" transform="translate(10.000000, 90.000000)">
                <path d="M336.818182,183.636364 L371.363636,183.636364 C376.133368,183.636364 380,179.769731 380,175 C380,170.230268 376.133368,166.363636 371.363636,166.363636 L336.818182,166.363636 C332.04845,166.363636 328.181818,170.230268 328.181818,175 C328.181818,179.769731 332.04845,183.636364 336.818182,183.636364 Z" id="Path" fill="#FFFFFF"></path>
                <path d="M9.63636364,220.642941 L372.363636,220.642941 C377.133368,220.642941 381,217.220158 381,212.997941 C381,208.775725 377.133368,205.352941 372.363636,205.352941 L9.63636364,205.352941 C4.8666317,205.352941 1,208.775725 1,212.997941 C1,217.220158 4.8666317,220.642941 9.63636364,220.642941 Z" id="Shape" fill="#FFFFFF" fill-rule="nonzero"></path>
                <path d="M8.63636364,178.636364 L43.1818182,178.636364 C47.9515501,178.636364 51.8181818,174.769731 51.8181818,170 C51.8181818,165.230268 47.9515501,161.363636 43.1818182,161.363636 L8.63636364,161.363636 C3.8666317,161.363636 0,165.230268 0,170 C0,174.769731 3.8666317,178.636364 8.63636364,178.636364 Z" id="Path" fill="#FFFFFF"></path>
                <path d="M54.3477142,66.5613767 L81.9840778,94.1977405 C85.3567876,97.5704504 90.8250307,97.5704504 94.1977405,94.1977405 C97.5704504,90.8250307 97.5704504,85.3567876 94.1977405,81.9840778 L66.5613767,54.3477142 C63.188667,50.9750044 57.7204239,50.9750044 54.3477142,54.3477142 C50.9750044,57.720424 50.9750044,63.188667 54.3477142,66.5613767 Z" id="Path" fill="#FFFFFF"></path>
                <path d="M313.438623,54.3477142 L285.802259,81.9840778 C282.42955,85.3567876 282.42955,90.8250307 285.802259,94.1977405 C289.174969,97.5704504 294.643213,97.5704504 298.015922,94.1977405 L325.652286,66.5613767 C329.024996,63.188667 329.024996,57.720424 325.652286,54.3477142 C322.279576,50.9750044 316.811333,50.9750044 313.438623,54.3477142 Z" id="Shape" fill="#FFFFFF" fill-rule="nonzero"></path>
                <path d="M181.363636,8.63636364 L181.363636,34.5454545 C181.363636,39.3151865 185.230269,43.1818182 190,43.1818182 C194.769732,43.1818182 198.636364,39.3151865 198.636364,34.5454545 L198.636364,8.63636364 C198.636364,3.8666317 194.769732,0 190,0 C185.230269,0 181.363636,3.8666317 181.363636,8.63636364 Z" id="Shape" fill="#FFFFFF" fill-rule="nonzero"></path>
                <path d="M88.1003804,212 C86.7230354,205.214691 86,198.191783 86,191 C86,133.010101 133.010101,86 191,86 C248.989899,86 296,133.010101 296,191 C296,198.191783 295.276965,205.214691 293.89962,212 L88.1003804,212 Z" id="Combined-Shape" stroke="#FFFFFF" stroke-width="15.29"></path>
            </g>
        </g>
    </g>
</svg>