<svg xmlns="http://www.w3.org/2000/svg" width="48" height="48" viewBox="0 0 48 48">
  <g fill="#FFFFFF" transform="translate(6 5)">
    <path d="M16.7071068,21.7928932 C19.9711241,25.1474431 24.7540797,26.3751537 29.2334139,25.1361889 C29.97597,24.930801 30.6620925,25.6069335 30.4676173,26.3524219 C29.8050894,28.892112 28.4857223,31.2284913 26.6071068,33.1071068 C20.7165825,38.9976311 11.2834175,38.9976311 5.39289322,33.1071068 C-0.497631073,27.2165825 -0.497631073,17.7834175 5.39289322,11.8928932 C7.27150873,10.0142777 9.60788804,8.69491057 12.1475781,8.03238273 C12.8930665,7.83790749 13.569199,8.52403004 13.3638111,9.26658605 C12.1292551,13.7299811 13.34145,18.4272364 16.7071068,21.7928932 Z M15.2832741,23.197355 C11.8547321,19.7689456 10.3609202,15.1011355 11.0599331,10.494818 C9.47929547,11.1341938 8.03045105,12.0837625 6.80710678,13.3071068 C1.69763107,18.4165825 1.69763107,26.5834175 6.80710678,31.6928932 C11.9165825,36.8023689 20.0834175,36.8023689 25.1928932,31.6928932 C26.4163402,30.4694462 27.3659657,29.0204612 28.0053431,27.4396687 C23.3663166,28.1428311 18.6288388,26.635852 15.2832741,23.197355 Z"/>
    <polygon points="18.743 6.099 20.5 2.745 22.257 6.099 25.969 6.745 23.274 9.44 23.933 13.227 20.5 11.429 17.067 13.227 17.726 9.44 15.031 6.745"/>
    <polygon points="33.5 .675 34.953 3.4 38.065 3.949 35.85 6.164 36.217 9.282 33.5 7.833 30.658 9.349 31.22 6.164 28.839 3.966 32.047 3.4"/>
    <polygon points="27.5 14.675 28.953 17.4 32.065 17.949 29.85 20.164 30.217 23.282 27.5 21.833 24.658 23.349 25.22 20.164 22.839 17.966 26.047 17.4"/>
  </g>
</svg>
